<svg width="34" height="31" viewBox="0 0 34 31" fill="none" xmlns="http://www.w3.org/2000/svg">
<path d="M17.9036 9.58663L17.9033 14.6095V14.6096V14.668C17.9033 14.7845 17.9184 14.8976 17.9466 15.0053L17.8988 15.823L17.8962 15.867C17.885 16.0587 17.8103 16.2263 17.6842 16.3526L19.1268 15.4077C19.0445 15.3941 18.9624 15.365 18.8806 15.3204L18.4844 15.1047V14.668V14.6096V9.58663M17.9036 9.58663V9.5866L18.194 9.58661L18.4844 9.58663M17.9036 9.58663C17.9036 9.74706 18.0338 9.87704 18.194 9.87704C18.3544 9.87704 18.4844 9.74675 18.4844 9.58663M17.9036 9.58663H18.194H18.4844M12.2833 9.13765L12.2833 9.13768L12.2833 9.13765ZM12.2833 9.13765C12.0703 9.50871 11.5586 9.64724 11.1849 9.43261L12.2833 9.13765ZM10.8522 10.0103L10.8516 10.01C10.5772 9.8516 10.3794 9.59215 10.2976 9.28811L10.2974 9.28766L10.2974 9.28756L10.297 9.28602C10.2304 9.0355 10.2473 8.77341 10.3431 8.53595V8.34138C10.1722 8.63637 10.1265 8.98058 10.2149 9.30971C10.3028 9.63863 10.5141 9.91357 10.8095 10.0849L10.8522 10.0103ZM18.0957 16.7637L18.1558 16.8238L18.0957 16.7637L18.095 16.7644C17.8442 17.0147 17.5077 17.1529 17.1545 17.1529C17.1545 17.1529 17.1545 17.1529 17.1545 17.1529C16.6743 17.1529 16.2532 16.8977 16.0194 16.5157C15.9954 16.528 15.9711 16.5399 15.9465 16.5513L18.0957 16.7637ZM10.9195 8.67631C10.8377 8.81802 10.8166 8.97949 10.8587 9.13674C10.8587 9.13678 10.8588 9.13683 10.8588 9.13688L10.8588 9.137L10.859 9.13762C10.9007 9.29398 10.9992 9.42354 11.142 9.50698C11.142 9.50701 11.1421 9.50704 11.1421 9.50707L10.9195 8.67631Z" fill="#4CAF4F" stroke="#4CAF4F" stroke-width="1.33333"/>
<path d="M9.12525 21.9846C8.94667 22.092 8.71578 22.0341 8.60905 21.8557C8.5021 21.6776 8.56005 21.4465 8.73793 21.3395L9.12525 21.9846ZM4.74685 17.6199C4.76149 17.5935 4.77519 17.5688 4.78787 17.546C4.83912 17.4536 4.87382 17.3911 4.88776 17.366L4.96355 17.4059C4.91673 17.4903 4.87079 17.5731 4.82572 17.6543C4.79932 17.6443 4.77297 17.6329 4.74685 17.6199ZM15.1554 19.9139C15.3076 19.8225 15.415 19.6778 15.4579 19.5061C15.5007 19.3346 15.4741 19.1562 15.3829 19.004L15.1554 19.9139Z" fill="#4CAF4F" stroke="#4CAF4F" stroke-width="1.33333"/>
<path d="M20.8527 19.2861C20.7587 19.2278 20.6732 19.1587 20.5976 19.0807L19.8782 18.7044L19.8782 18.7044L19.8381 18.6834C19.7243 18.6239 19.6083 18.5956 19.4965 18.5954L20.8527 19.2861ZM19.1717 18.0547C19.1718 18.0547 19.1719 18.0547 19.1721 18.0547L19.2275 18.2769L19.2275 18.2769L19.3126 18.6184L19.3125 18.6184L19.1717 18.0547ZM23.3872 24.9784C23.387 24.9783 23.3869 24.9782 23.3867 24.9781L23.3872 24.9784ZM18.845 21.38L18.8464 21.3808L18.845 21.38Z" fill="#4CAF4F" stroke="#4CAF4F" stroke-width="1.33333"/>
</svg>
