<svg width="48" height="49" viewBox="0 0 48 49" fill="none" xmlns="http://www.w3.org/2000/svg">
<path d="M40 42.1927V38.1927C40 36.071 39.1571 34.0362 37.6569 32.5359C36.1566 31.0356 34.1217 30.1927 32 30.1927H30C29.4696 30.1927 28.9609 29.982 28.5858 29.607C28.2107 29.2319 28 28.7232 28 28.1927V18.1927C28 17.1319 27.5786 16.1145 26.8284 15.3643C26.0783 14.6142 25.0609 14.1927 24 14.1927C22.9391 14.1927 21.9217 14.6142 21.1716 15.3643C20.4214 16.1145 20 17.1319 20 18.1927V36.1927L15.2 29.7927C14.8274 29.296 14.3443 28.8927 13.7889 28.615C13.2334 28.3373 12.621 28.1927 12 28.1927H11.132C9.402 28.1927 8 29.5947 8 31.3247C8 31.8927 8.154 32.4507 8.446 32.9367L14 42.1927M24 8.19275V6.19275V8.19275ZM36 20.1927H38H36ZM10 20.1927H12H10ZM14.686 10.8787L13.272 9.46475L14.686 10.8787ZM33.314 10.8787L34.728 9.46475L33.314 10.8787Z" fill="#4CAF4F"/>
<path d="M40 42.1927V38.1927C40 36.071 39.1571 34.0362 37.6569 32.5359C36.1566 31.0356 34.1217 30.1927 32 30.1927H30C29.4696 30.1927 28.9609 29.982 28.5858 29.607C28.2107 29.2319 28 28.7232 28 28.1927V18.1927C28 17.1319 27.5786 16.1145 26.8284 15.3643C26.0783 14.6142 25.0609 14.1927 24 14.1927V14.1927C22.9391 14.1927 21.9217 14.6142 21.1716 15.3643C20.4214 16.1145 20 17.1319 20 18.1927V36.1927L15.2 29.7927C14.8274 29.296 14.3443 28.8928 13.7889 28.615C13.2334 28.3373 12.621 28.1927 12 28.1927H11.132C9.402 28.1927 8 29.5947 8 31.3247C8 31.8927 8.154 32.4507 8.446 32.9367L14 42.1927M24 8.19275V6.19275M36 20.1927H38M10 20.1927H12M14.686 10.8787L13.272 9.46475M33.314 10.8787L34.728 9.46475" stroke="#4CAF4F" stroke-width="2" stroke-linecap="round" stroke-linejoin="round"/>
</svg>
