<svg width="48" height="49" viewBox="0 0 48 49" fill="none" xmlns="http://www.w3.org/2000/svg">
<path d="M5.5 16.6927V17.1927H6H42H42.5V16.6927V14.4427C42.5 13.3156 42.0522 12.2346 41.2552 11.4375C40.4582 10.6405 39.3772 10.1927 38.25 10.1927H9.75C8.62283 10.1927 7.54183 10.6405 6.7448 11.4375C5.94777 12.2346 5.5 13.3156 5.5 14.4427V16.6927ZM42.5 19.6927V19.1927H42H6H5.5V19.6927V33.9427C5.5 35.0699 5.94777 36.1509 6.7448 36.948C7.54183 37.745 8.62283 38.1927 9.75 38.1927H38.25C39.3772 38.1927 40.4582 37.745 41.2552 36.948C42.0522 36.1509 42.5 35.0699 42.5 33.9427V19.6927ZM3.5 14.4427C3.5 12.7851 4.15848 11.1954 5.33058 10.0233C6.50268 8.85123 8.0924 8.19275 9.75 8.19275H38.25C39.9076 8.19275 41.4973 8.85123 42.6694 10.0233C43.8415 11.1954 44.5 12.7851 44.5 14.4427V33.9427C44.5 35.6004 43.8415 37.1901 42.6694 38.3622C41.4973 39.5343 39.9076 40.1927 38.25 40.1927H9.75C8.0924 40.1927 6.50268 39.5343 5.33058 38.3622C4.15848 37.1901 3.5 35.6004 3.5 33.9427V14.4427ZM31.5 29.1927H36C36.2652 29.1927 36.5196 29.2981 36.7071 29.4856C36.8946 29.6732 37 29.9275 37 30.1927C37 30.458 36.8946 30.7123 36.7071 30.8999C36.5196 31.0874 36.2652 31.1927 36 31.1927H31.5C31.2348 31.1927 30.9804 31.0874 30.7929 30.8999C30.6054 30.7123 30.5 30.458 30.5 30.1927C30.5 29.9275 30.6054 29.6732 30.7929 29.4856C30.9804 29.2981 31.2348 29.1927 31.5 29.1927Z" fill="#4CAF4F" stroke="#4CAF4F"/>
</svg>
