<svg width="48" height="49" viewBox="0 0 48 49" fill="none" xmlns="http://www.w3.org/2000/svg">
<rect y="0.784546" width="48" height="48" rx="8" fill="#E8F5E9"/>
<g clip-path="url(#clip0_22_772)">
<path fill-rule="evenodd" clip-rule="evenodd" d="M10.3533 0.979065C15.8761 0.979065 20.3533 5.45621 20.3533 10.9791V0.979065H30.3533C35.8761 0.979065 40.3533 5.45621 40.3533 10.9791C40.3533 16.5019 35.8761 20.9791 30.3533 20.9791C35.8761 20.9791 40.3533 25.4563 40.3533 30.9791C40.3533 33.7214 39.2494 36.2059 37.4618 38.0125L37.4244 38.0502L37.3912 38.0832C35.5842 39.8734 33.0979 40.9791 30.3533 40.9791C27.6274 40.9791 25.1562 39.8884 23.3523 38.1196C23.3289 38.0966 23.3055 38.0734 23.2822 38.0502C23.2603 38.0283 23.2385 38.0063 23.2168 37.9842C21.4457 36.18 20.3533 33.7071 20.3533 30.9791C20.3533 36.5019 15.8761 40.9791 10.3533 40.9791C4.83048 40.9791 0.353333 36.5019 0.353333 30.9791V20.9791H10.3533C4.83048 20.9791 0.353333 16.5019 0.353333 10.9791C0.353333 5.45621 4.83048 0.979065 10.3533 0.979065ZM18.3533 10.9791C18.3533 15.3974 14.7716 18.9791 10.3533 18.9791V2.97906C14.7716 2.97906 18.3533 6.56078 18.3533 10.9791ZM38.3533 30.9791C38.3533 26.5608 34.7716 22.9791 30.3533 22.9791C25.935 22.9791 22.3533 26.5608 22.3533 30.9791H38.3533ZM2.35333 22.9791V30.9791C2.35333 35.3974 5.93505 38.9791 10.3533 38.9791C14.7716 38.9791 18.3533 35.3974 18.3533 30.9791V22.9791H2.35333ZM22.3533 18.9791V2.97906H30.3533C34.7716 2.97906 38.3533 6.56078 38.3533 10.9791C38.3533 15.3974 34.7716 18.9791 30.3533 18.9791H22.3533Z" fill="#5417D7"/>
</g>
<defs>
<clipPath id="clip0_22_772">
<rect width="40" height="40" fill="white" transform="translate(0.353333 0.979065)"/>
</clipPath>
</defs>
</svg>
