<svg width="442" height="434" viewBox="0 0 442 434" fill="none" xmlns="http://www.w3.org/2000/svg">
<path d="M376.369 433.516C376.369 433.66 304.601 433.784 216.1 433.784C127.599 433.784 55.8001 433.66 55.8001 433.516C55.8001 433.371 127.558 433.247 216.1 433.247C304.642 433.247 376.369 433.381 376.369 433.516Z" fill="#263238"/>
<path d="M306.441 306.991C290.473 295.84 286.855 275.138 287.486 256.524C287.589 253.424 287.248 250.137 288.726 247.419C290.204 244.701 293.656 242.83 296.436 244.132C298.741 245.218 299.743 247.905 301.035 250.127C302.759 253.086 305.285 255.498 308.322 257.082C310.296 258.116 312.745 258.736 314.699 257.661C317.386 256.183 317.696 252.494 317.675 249.393C317.675 243.626 317.641 237.866 317.572 232.112C317.386 229.023 317.7 225.924 318.502 222.935C319.463 220 321.602 217.281 324.527 216.455C327.452 215.628 331.101 217.333 331.762 220.351C331.876 221.629 331.907 222.913 331.855 224.196C331.938 225.488 332.537 226.903 333.746 227.296C334.956 227.689 336.217 226.79 337.147 225.88C340.33 222.78 342.5 218.739 344.516 214.749C346.531 210.76 348.505 206.657 351.399 203.256C354.293 199.856 358.293 197.159 362.768 196.9C367.243 196.642 371.904 199.391 373.02 203.732C374.137 208.073 371.604 212.506 368.886 216.031C364.785 221.262 359.95 225.874 354.531 229.725C353.473 230.303 352.629 231.205 352.123 232.299C351.451 234.366 353.404 236.433 355.44 237.084C357.745 237.849 360.246 237.611 362.675 237.9C365.104 238.19 367.687 239.244 368.607 241.518C369.868 244.68 367.222 247.987 364.628 250.158C359.419 254.499 353.504 257.914 347.141 260.255C344.867 261.082 342.48 261.816 340.64 263.408C338.8 264.999 337.705 267.779 338.811 269.96C339.917 272.141 342.759 272.833 345.146 272.389C347.534 271.945 349.652 270.663 351.926 269.805C356.174 268.203 361.652 268.493 364.328 272.162C365.158 273.426 365.683 274.864 365.862 276.365C366.041 277.866 365.87 279.389 365.362 280.812C364.328 283.646 362.736 286.243 360.68 288.45C353.911 296.538 345.116 302.683 335.193 306.258C325.344 309.668 316.218 310.598 306.43 307.012" fill="#4CAF4F"/>
<path d="M368.473 199.453C368.473 199.453 368.38 199.556 368.173 199.742L367.253 200.559C366.447 201.282 365.259 202.337 363.76 203.732C359.511 207.677 355.566 211.937 351.957 216.475C349.652 219.338 347.265 222.583 344.722 226.108C342.18 229.632 339.555 233.435 336.95 237.476C334.174 241.738 331.631 246.147 329.333 250.685C328.134 253.052 327.08 255.522 325.995 258.044L322.791 265.743C318.568 275.442 314.89 285.369 311.774 295.478C309.264 303.749 307.534 312.237 306.606 320.83C306.005 326.63 305.908 332.47 306.317 338.287C306.482 340.354 306.637 341.935 306.782 343.01C306.844 343.527 306.885 343.94 306.926 344.24V344.663C306.882 344.529 306.851 344.391 306.833 344.25C306.782 343.95 306.72 343.547 306.637 343.031C306.451 341.997 306.255 340.364 306.069 338.297C305.57 332.47 305.605 326.61 306.172 320.789C307.042 312.159 308.734 303.631 311.226 295.323C314.316 285.186 317.984 275.234 322.212 265.516L325.499 257.847C326.584 255.336 327.649 252.845 328.858 250.468C331.171 245.916 333.735 241.497 336.537 237.228C339.183 233.094 341.849 229.353 344.361 225.86C346.872 222.366 349.301 219.1 351.595 216.248C355.241 211.721 359.239 207.491 363.553 203.597C365.083 202.223 366.302 201.189 367.129 200.497L368.09 199.722C368.208 199.619 368.336 199.529 368.473 199.453Z" fill="#263238"/>
<path d="M328.992 250.447C328.846 250.021 328.746 249.582 328.692 249.135C328.527 248.277 328.341 247.068 328.124 245.497C327.68 242.396 327.225 238.148 326.739 233.446C326.253 228.743 325.706 224.485 325.251 221.415C325.013 219.886 324.806 218.656 324.662 217.798C324.549 217.359 324.49 216.908 324.486 216.455C324.664 216.869 324.792 217.302 324.868 217.746C325.096 218.594 325.354 219.814 325.644 221.353C326.233 224.454 326.811 228.671 327.297 233.384C327.783 238.097 328.196 242.231 328.517 245.445C328.672 246.892 328.806 248.122 328.91 249.104C328.99 249.547 329.018 249.998 328.992 250.447Z" fill="#263238"/>
<path d="M368.762 243.027C368.259 243.136 367.747 243.198 367.233 243.213C366.199 243.306 364.732 243.43 362.913 243.636C359.275 244.029 354.272 244.753 348.784 245.786C343.296 246.82 338.366 247.987 334.821 248.887C333.054 249.341 331.628 249.755 330.687 250.034C330.185 250.212 329.665 250.337 329.137 250.406C329.615 250.166 330.113 249.969 330.625 249.817C331.597 249.476 333.002 249 334.759 248.494C338.284 247.46 343.214 246.23 348.722 245.176C353.389 244.284 358.097 243.629 362.83 243.213C364.659 243.058 366.137 242.996 367.171 242.975C367.702 242.939 368.235 242.956 368.762 243.027Z" fill="#263238"/>
<path d="M311.732 294.599C311.622 294.45 311.532 294.287 311.464 294.114L310.781 292.677C310.192 291.427 309.397 289.577 308.446 287.313C306.523 282.766 304.074 276.399 301.469 269.33C298.865 262.26 296.467 255.894 294.648 251.295C293.759 249.062 293.025 247.233 292.478 245.869L291.899 244.391C291.819 244.22 291.763 244.039 291.734 243.853C291.844 244.003 291.934 244.166 292.002 244.339L292.684 245.776C293.263 247.026 294.069 248.876 295.02 251.14C296.943 255.687 299.392 262.054 301.996 269.123C304.601 276.192 306.999 282.559 308.818 287.158C309.707 289.39 310.44 291.22 310.978 292.584C311.216 293.173 311.412 293.618 311.567 294.062C311.647 294.232 311.703 294.413 311.732 294.599Z" fill="#263238"/>
<path d="M364.525 277.577C364.359 277.672 364.182 277.745 363.998 277.794L362.468 278.311L356.815 280.14C352.04 281.691 345.446 283.902 338.211 286.342C330.977 288.781 324.352 290.951 319.546 292.398C317.148 293.132 315.195 293.69 313.841 294.062L312.28 294.465C312.099 294.523 311.912 294.561 311.722 294.579C311.887 294.484 312.065 294.411 312.249 294.362L313.779 293.845L319.432 292.016C324.207 290.465 330.801 288.254 338.036 285.815C345.27 283.375 351.885 281.205 356.691 279.758C359.099 279.024 361.042 278.466 362.406 278.094L363.967 277.691C364.148 277.633 364.335 277.595 364.525 277.577Z" fill="#263238"/>
<path d="M342.583 44.6633L337.26 46.5649L334.976 39.6093C330.78 26.7833 317.406 19.9723 305.117 24.3028C292.829 28.6333 286.287 42.6996 290.483 55.5256L292.767 62.4813L287.423 64.3933C285.386 65.1836 283.731 66.7286 282.804 68.7073C281.876 70.6861 281.746 72.9462 282.442 75.0179L297.252 120.276C297.56 121.302 298.07 122.255 298.753 123.079C299.436 123.904 300.278 124.583 301.229 125.075C302.179 125.568 303.219 125.864 304.287 125.947C305.354 126.03 306.428 125.897 307.443 125.557L362.602 105.827C364.667 105.038 366.345 103.48 367.283 101.479C368.222 99.4781 368.348 97.1913 367.635 95.0993L352.815 49.8412C352.499 48.8185 351.981 47.8698 351.291 47.0517C350.601 46.2337 349.753 45.563 348.798 45.0797C347.843 44.5965 346.801 44.3105 345.733 44.239C344.665 44.1674 343.594 44.3117 342.583 44.6633ZM300.539 51.8979C299.407 48.563 299.611 44.9196 301.106 41.731C302.601 38.5424 305.272 36.0562 308.559 34.7931C310.182 34.2377 311.901 34.015 313.612 34.1382C315.323 34.2615 316.992 34.7282 318.519 35.5104C320.046 36.2927 321.4 37.3745 322.499 38.6914C323.599 40.0082 324.422 41.5331 324.92 43.175L327.193 50.1306L302.813 58.8536L300.539 51.8979ZM331.545 92.0608L335.327 103.616C335.397 103.847 335.374 104.097 335.265 104.312C335.155 104.528 334.966 104.693 334.738 104.773L329.436 106.665C329.225 106.723 329 106.698 328.807 106.594C328.614 106.489 328.47 106.315 328.403 106.106L324.589 94.6033C322.486 94.4887 320.468 93.7344 318.806 92.4415C317.144 91.1485 315.916 89.3785 315.287 87.3686C314.388 84.7113 314.552 81.8093 315.745 79.2702C316.937 76.7311 319.066 74.7518 321.685 73.7467C322.978 73.3049 324.347 73.1279 325.71 73.2264C327.073 73.3248 328.402 73.6966 329.618 74.3197C330.834 74.9427 331.912 75.8042 332.788 76.8528C333.665 77.9014 334.321 79.1157 334.718 80.4233C335.383 82.465 335.438 84.6565 334.876 86.729C334.314 88.8016 333.16 90.6653 331.555 92.0918L331.545 92.0608Z" fill="#4CAF4F"/>
<path d="M337.022 46.4409C337.022 46.5856 327.152 50.296 314.874 54.7091C302.596 59.1223 292.581 62.6673 292.529 62.5639C292.477 62.4606 302.399 58.7192 314.688 54.2957C326.976 49.8722 336.971 46.3066 337.022 46.4409Z" fill="#263238"/>
<path d="M348.743 48.3426C348.788 48.4323 348.826 48.5257 348.856 48.6217C348.939 48.8284 349.032 49.0971 349.156 49.4278C349.425 50.1823 349.797 51.2262 350.262 52.5284L354.231 64.0832C355.884 68.9821 357.858 74.7906 360.049 81.2398C361.083 84.4747 362.302 87.844 363.439 91.389C364.048 93.2158 364.311 95.14 364.214 97.0631C364.127 98.0632 363.842 99.0361 363.377 99.9259C362.881 100.813 362.217 101.595 361.424 102.231C359.827 103.396 358.055 104.3 356.174 104.908L350.851 106.82L340.774 110.427L323.71 116.504L312.187 120.555L309.086 121.589L308.259 121.857C308.171 121.897 308.077 121.921 307.98 121.93C307.98 121.93 308.063 121.93 308.239 121.806L309.045 121.485L312.145 120.317L323.607 116.101L340.64 109.899L350.696 106.261L356.019 104.339C357.846 103.756 359.567 102.88 361.114 101.745C361.852 101.155 362.47 100.429 362.933 99.6055C363.371 98.7826 363.634 97.8785 363.708 96.9494C363.803 95.0965 363.551 93.2421 362.964 91.482C361.848 87.968 360.669 84.5677 359.605 81.3328C357.455 74.8732 355.471 69.0442 353.9 64.1452C352.329 59.2463 351.006 55.3086 350.096 52.5387C349.662 51.1848 349.332 50.1306 349.063 49.3658L348.815 48.539C348.784 48.4764 348.759 48.4105 348.743 48.3426Z" fill="#263238"/>
<path d="M319.638 34.0903C319.638 34.0903 319.091 33.8216 318.078 33.4082C316.634 32.8534 315.107 32.546 313.561 32.4987C311.27 32.4201 308.99 32.8507 306.885 33.7596C304.325 34.8912 302.136 36.7217 300.57 39.0409C298.993 41.3534 298.147 44.0863 298.141 46.8853C298.163 49.1795 298.511 51.4589 299.175 53.6549C299.712 55.536 300.27 57.0346 300.642 58.0784C300.862 58.6086 301.041 59.1545 301.18 59.7114C300.886 59.2157 300.64 58.6931 300.446 58.1508C300.022 57.1173 299.412 55.6497 298.813 53.7583C298.077 51.5392 297.676 49.2227 297.624 46.8853C297.597 43.9805 298.463 41.1374 300.105 38.7412C301.726 36.3373 304.004 34.4502 306.668 33.3048C308.838 32.391 311.19 31.9879 313.541 32.1266C315.12 32.2071 316.672 32.5748 318.119 33.2118C318.506 33.3903 318.879 33.5976 319.235 33.8319C319.382 33.8965 319.518 33.9837 319.638 34.0903Z" fill="#263238"/>
<path d="M320.114 74.5322C320.279 74.4322 320.452 74.3458 320.631 74.2738C321.148 74.0403 321.684 73.8502 322.233 73.7054C323.104 73.4482 324.002 73.2956 324.909 73.2506C326.143 73.1843 327.378 73.3707 328.537 73.7984C331.183 74.7286 333.612 77.4261 334.811 81.0331C335.386 82.9688 335.386 85.0298 334.811 86.9655C334.173 89.0664 333.03 90.9791 331.483 92.5362L331.545 92.2572C332.919 96.0295 334.418 100.122 335.968 104.391L336.061 104.649L335.803 104.742L333.436 105.528L328.268 107.254L328.01 107.336L327.927 107.078C326.511 102.799 324.961 98.8097 323.793 94.8927L324.021 95.0683C322 94.9005 320.074 94.1421 318.481 92.8876C317.04 91.7778 315.858 90.3669 315.019 88.7535C314.261 87.3227 313.884 85.7212 313.923 84.1026C313.971 82.4484 314.384 80.8253 315.133 79.3494C315.881 77.8735 316.947 76.5814 318.254 75.5657C318.791 75.1291 319.395 74.7803 320.042 74.5322C319.458 74.8786 318.892 75.2546 318.347 75.6587C316.911 76.873 315.812 78.4352 315.153 80.1959C314.587 81.5236 314.323 82.9601 314.378 84.4021C314.434 85.8441 314.808 87.256 315.473 88.5365C316.299 90.0886 317.452 91.4428 318.853 92.5052C320.372 93.6977 322.209 94.4165 324.134 94.5723H324.31L324.362 94.7273C325.499 98.572 327.059 102.592 328.496 106.892L328.155 106.727L333.322 105.001L335.679 104.205L335.513 104.556C333.973 100.288 332.485 96.1846 331.121 92.4122V92.2572L331.245 92.1331C332.747 90.6406 333.868 88.8076 334.511 86.7898C335.059 84.9382 335.059 82.9674 334.511 81.1157C333.384 77.6431 331.059 75.0076 328.537 74.0774C327.421 73.647 326.229 73.4466 325.033 73.4883C324.141 73.5088 323.253 73.6301 322.388 73.85C320.848 74.2325 320.124 74.5839 320.114 74.5322Z" fill="#263238"/>
<path d="M288.571 355.164L185.332 354.689C179.37 354.656 173.665 352.258 169.469 348.022C165.274 343.786 162.931 338.058 162.956 332.096L164.052 73.2904C164.064 70.3367 164.658 67.4143 165.8 64.6903C166.943 61.9663 168.61 59.4941 170.709 57.4151C172.807 55.3361 175.294 53.691 178.029 52.5738C180.763 51.4566 183.691 50.8893 186.645 50.9043L289.873 51.3797C295.835 51.4098 301.541 53.8049 305.739 58.0391C309.936 62.2733 312.281 68.0002 312.259 73.9622L311.164 332.757C311.152 335.712 310.558 338.635 309.416 341.361C308.274 344.086 306.606 346.559 304.508 348.64C302.41 350.721 299.923 352.368 297.188 353.487C294.454 354.606 291.526 355.176 288.571 355.164Z" fill="#455A64"/>
<path d="M289.718 60.2784H269.709C269.056 60.2905 268.412 60.4311 267.814 60.6921C267.215 60.9532 266.674 61.3296 266.221 61.7999C265.768 62.2702 265.412 62.8251 265.173 63.433C264.935 64.0409 264.819 64.6898 264.831 65.3426V68.9703C264.843 69.6227 264.727 70.2711 264.488 70.8783C264.249 71.4856 263.893 72.0399 263.44 72.5093C262.987 72.9788 262.446 73.3542 261.847 73.6142C261.249 73.8742 260.605 74.0135 259.953 74.0243L220.947 73.8486C219.628 73.8134 218.376 73.2559 217.467 72.2987C216.558 71.3414 216.067 70.0625 216.1 68.7429V65.1153C216.133 63.7974 215.643 62.5201 214.736 61.5631C213.83 60.6061 212.581 60.0475 211.263 60.0096H204.225L186.707 59.927C182.54 59.9022 178.533 61.5294 175.563 64.4525C172.594 67.3756 170.904 71.3562 170.863 75.5229L169.829 328.137C169.82 330.205 170.217 332.253 171 334.167C171.782 336.08 172.933 337.821 174.388 339.289C175.843 340.757 177.573 341.925 179.479 342.725C181.385 343.524 183.43 343.941 185.497 343.95L288.519 344.426C290.588 344.435 292.638 344.037 294.552 343.255C296.467 342.472 298.209 341.32 299.678 339.864C301.147 338.408 302.316 336.677 303.116 334.769C303.916 332.862 304.333 330.816 304.343 328.747L305.376 76.1327C305.401 71.9543 303.765 67.937 300.829 64.9641C297.893 61.9911 293.897 60.3057 289.718 60.2784Z" fill="white"/>
<path d="M275.859 310.722L199.254 310.392C198.458 310.392 197.817 309.524 197.827 308.469L197.91 288.429C197.91 287.396 198.561 286.507 199.357 286.507L275.962 286.858C276.403 286.935 276.797 287.178 277.063 287.538C277.329 287.898 277.445 288.347 277.388 288.791L277.316 308.81C277.316 309.875 276.654 310.733 275.859 310.722Z" fill="#4CAF4F"/>
<path d="M222.544 300.51C222.122 300.51 221.715 300.442 221.325 300.307C220.94 300.166 220.642 299.987 220.43 299.77L220.666 299.306C220.867 299.502 221.135 299.667 221.471 299.803C221.813 299.933 222.17 299.998 222.544 299.998C222.902 299.998 223.192 299.954 223.414 299.868C223.642 299.775 223.807 299.653 223.91 299.502C224.019 299.35 224.073 299.182 224.073 298.998C224.073 298.775 224.008 298.596 223.878 298.461C223.753 298.325 223.588 298.22 223.382 298.144C223.176 298.062 222.948 297.992 222.699 297.932C222.45 297.873 222.2 297.81 221.951 297.745C221.701 297.675 221.471 297.583 221.26 297.469C221.054 297.355 220.886 297.206 220.756 297.022C220.631 296.832 220.568 296.585 220.568 296.282C220.568 296 220.642 295.742 220.788 295.509C220.94 295.271 221.17 295.081 221.479 294.94C221.788 294.794 222.184 294.72 222.666 294.72C222.986 294.72 223.303 294.767 223.618 294.859C223.932 294.945 224.203 295.067 224.431 295.225L224.228 295.704C223.984 295.542 223.723 295.422 223.447 295.347C223.176 295.271 222.913 295.233 222.658 295.233C222.317 295.233 222.035 295.279 221.813 295.371C221.59 295.463 221.425 295.588 221.317 295.745C221.214 295.897 221.162 296.07 221.162 296.265C221.162 296.488 221.224 296.667 221.349 296.802C221.479 296.938 221.647 297.043 221.853 297.119C222.065 297.195 222.295 297.263 222.544 297.322C222.794 297.382 223.04 297.447 223.284 297.518C223.534 297.588 223.761 297.68 223.967 297.794C224.179 297.902 224.347 298.049 224.472 298.233C224.602 298.417 224.667 298.659 224.667 298.957C224.667 299.233 224.591 299.491 224.439 299.729C224.287 299.962 224.054 300.152 223.74 300.299C223.431 300.439 223.032 300.51 222.544 300.51ZM225.978 300.461V294.769H226.579V300.461H225.978ZM228.431 300.461V294.769H228.927L232.855 299.713H232.595V294.769H233.188V300.461H232.692L228.773 295.517H229.033V300.461H228.431ZM237.542 300.51C237.109 300.51 236.707 300.439 236.339 300.299C235.976 300.152 235.659 299.949 235.388 299.689C235.122 299.428 234.913 299.122 234.761 298.77C234.615 298.417 234.542 298.033 234.542 297.615C234.542 297.198 234.615 296.813 234.761 296.461C234.913 296.108 235.125 295.802 235.396 295.542C235.667 295.282 235.984 295.081 236.347 294.94C236.716 294.794 237.117 294.72 237.55 294.72C237.984 294.72 238.38 294.788 238.738 294.924C239.101 295.059 239.41 295.265 239.665 295.542L239.291 295.924C239.052 295.685 238.789 295.515 238.502 295.412C238.214 295.309 237.906 295.257 237.575 295.257C237.222 295.257 236.897 295.317 236.599 295.436C236.306 295.55 236.049 295.715 235.827 295.932C235.61 296.143 235.439 296.393 235.314 296.68C235.195 296.962 235.135 297.274 235.135 297.615C235.135 297.951 235.195 298.263 235.314 298.55C235.439 298.838 235.61 299.09 235.827 299.306C236.049 299.518 236.306 299.683 236.599 299.803C236.897 299.916 237.22 299.973 237.567 299.973C237.892 299.973 238.198 299.924 238.486 299.827C238.778 299.729 239.047 299.564 239.291 299.331L239.632 299.786C239.361 300.025 239.044 300.206 238.681 300.331C238.317 300.45 237.938 300.51 237.542 300.51ZM239.055 299.713V297.615H239.632V299.786L239.055 299.713ZM245.756 300.51C245.03 300.51 244.458 300.301 244.04 299.884C243.623 299.466 243.414 298.848 243.414 298.03V294.769H244.016V298.005C244.016 298.678 244.168 299.174 244.471 299.494C244.775 299.813 245.203 299.973 245.756 299.973C246.315 299.973 246.745 299.813 247.049 299.494C247.353 299.174 247.504 298.678 247.504 298.005V294.769H248.09V298.03C248.09 298.848 247.881 299.466 247.464 299.884C247.052 300.301 246.483 300.51 245.756 300.51ZM249.903 300.461V294.769H252.033C252.516 294.769 252.931 294.848 253.278 295.005C253.624 295.157 253.89 295.379 254.074 295.672C254.264 295.959 254.359 296.309 254.359 296.721C254.359 297.122 254.264 297.469 254.074 297.762C253.89 298.049 253.624 298.271 253.278 298.428C252.931 298.586 252.516 298.664 252.033 298.664H250.236L250.505 298.38V300.461H249.903ZM250.505 298.428L250.236 298.136H252.017C252.586 298.136 253.017 298.014 253.31 297.77C253.608 297.52 253.757 297.171 253.757 296.721C253.757 296.265 253.608 295.913 253.31 295.664C253.017 295.414 252.586 295.29 252.017 295.29H250.236L250.505 295.005V298.428Z" fill="#E8E8E3"/>
<path d="M214.533 134.537L187.951 134.417L187.929 139.295L214.511 139.416L214.533 134.537Z" fill="#4CAF4F"/>
<path opacity="0.1" d="M214.533 134.537L187.951 134.417L187.929 139.295L214.511 139.416L214.533 134.537Z" fill="black"/>
<path d="M292.457 164.489C292.666 164.468 292.871 164.419 293.067 164.344C293.353 164.232 293.602 164.042 293.784 163.795C293.967 163.548 294.077 163.255 294.1 162.949C294.1 161.306 294.1 158.908 294.1 155.828C294.1 154.288 294.1 152.562 294.1 150.66C294.1 150.195 294.1 149.709 294.1 149.224C294.168 148.752 294.065 148.272 293.811 147.87C293.669 147.677 293.484 147.519 293.27 147.41C293.057 147.3 292.821 147.242 292.581 147.239H290.969H276.034L189.59 146.919C189.369 146.915 189.15 146.965 188.952 147.064C188.754 147.163 188.583 147.308 188.453 147.487C188.204 147.892 188.108 148.372 188.184 148.841C188.184 149.875 188.184 150.908 188.184 151.942C188.184 154.009 188.184 156.076 188.184 158.143C188.184 159.177 188.184 160.21 188.184 161.244C188.142 161.725 188.142 162.209 188.184 162.69C188.239 162.897 188.34 163.088 188.479 163.249C188.619 163.411 188.794 163.538 188.991 163.621C189.194 163.702 189.412 163.74 189.631 163.734H194.892L217.847 163.858L256.707 164.096L282.907 164.303L290.028 164.385H291.878C292.302 164.385 292.509 164.385 292.509 164.385H291.878H290.028H282.907H256.707L217.847 164.261L194.892 164.168H189.631C189.342 164.18 189.053 164.131 188.784 164.024C188.512 163.908 188.27 163.731 188.076 163.507C187.883 163.283 187.743 163.018 187.668 162.732C187.608 162.461 187.587 162.182 187.606 161.905V161.14C187.606 160.107 187.606 159.073 187.606 158.04C187.606 155.973 187.606 153.906 187.606 151.838C187.606 150.805 187.606 149.771 187.606 148.738C187.586 148.463 187.586 148.186 187.606 147.911C187.644 147.607 187.762 147.318 187.947 147.074C188.125 146.824 188.361 146.622 188.635 146.483C188.908 146.345 189.211 146.274 189.518 146.278L275.962 146.754L290.896 146.857H292.509C292.793 146.857 293.073 146.926 293.324 147.057C293.576 147.188 293.793 147.379 293.956 147.611C294.247 148.061 294.365 148.601 294.286 149.131C294.286 149.616 294.286 150.102 294.286 150.567C294.286 152.448 294.286 154.174 294.286 155.735C294.286 158.835 294.214 161.213 294.193 162.866C294.168 163.184 294.052 163.488 293.86 163.743C293.668 163.997 293.407 164.192 293.108 164.303C292.913 164.424 292.687 164.488 292.457 164.489Z" fill="#E0E0E0"/>
<path d="M244.553 152.107H195.936V156.665H244.553V152.107Z" fill="#4CAF4F"/>
<path opacity="0.2" d="M244.553 152.107H195.936V156.665H244.553V152.107Z" fill="white"/>
<path d="M214.352 179.04L187.77 178.919L187.748 183.797L214.33 183.918L214.352 179.04Z" fill="#4CAF4F"/>
<path opacity="0.1" d="M214.352 179.04L187.77 178.919L187.748 183.797L214.33 183.918L214.352 179.04Z" fill="black"/>
<path d="M291.785 208.992C291.994 208.967 292.201 208.929 292.405 208.879C292.694 208.787 292.96 208.634 293.184 208.431C293.409 208.228 293.587 207.979 293.708 207.701C293.87 207.283 293.934 206.834 293.894 206.388C293.894 205.892 293.894 205.354 293.894 204.755C293.894 203.556 293.894 202.192 293.894 200.621V194.058C293.943 193.583 293.838 193.104 293.594 192.694C293.339 192.273 292.938 191.96 292.467 191.815C291.953 191.723 291.428 191.696 290.907 191.733H276.034L189.89 191.412C189.427 191.413 188.979 191.583 188.631 191.889C188.284 192.195 188.059 192.617 187.999 193.076C187.999 194.058 187.999 195.143 187.999 196.177C187.999 198.244 187.999 200.311 187.999 202.378C187.999 203.411 187.999 204.445 187.999 205.478C187.96 205.962 187.981 206.447 188.061 206.925C188.19 207.345 188.455 207.708 188.815 207.959C189.197 208.201 189.645 208.317 190.097 208.29H191.533H194.52L217.392 208.403L256.118 208.641L282.225 208.848L289.325 208.93H282.225H256.118L217.371 208.889L194.499 208.806H190.004C189.445 208.84 188.89 208.691 188.422 208.383C187.952 208.057 187.609 207.579 187.451 207.029C187.358 206.504 187.33 205.969 187.368 205.437C187.368 204.404 187.368 203.37 187.368 202.337C187.368 200.27 187.368 198.202 187.368 196.135C187.368 195.102 187.368 194.068 187.368 193.035C187.443 192.444 187.732 191.901 188.179 191.507C188.626 191.113 189.201 190.896 189.797 190.895L275.941 191.371L290.814 191.485C291.368 191.451 291.923 191.489 292.467 191.598C293.004 191.774 293.457 192.142 293.739 192.632C294.006 193.087 294.122 193.615 294.069 194.141C294.069 194.626 294.069 195.102 294.069 195.577C294.069 197.448 294.069 199.164 294.069 200.745C294.069 202.326 294.069 203.659 294.069 204.879C294.069 205.468 294.069 206.016 294.069 206.522C294.107 206.985 294.032 207.449 293.852 207.876C293.718 208.161 293.524 208.414 293.283 208.618C293.042 208.821 292.761 208.97 292.457 209.054C292.231 209.073 292.004 209.052 291.785 208.992Z" fill="#E0E0E0"/>
<path d="M214.152 225.475L187.57 225.354L187.548 230.232L214.13 230.353L214.152 225.475Z" fill="#4CAF4F"/>
<path opacity="0.1" d="M214.152 225.475L187.57 225.354L187.548 230.232L214.13 230.353L214.152 225.475Z" fill="black"/>
<path d="M291.578 255.408C291.787 255.383 291.995 255.346 292.199 255.294C292.486 255.203 292.751 255.052 292.975 254.85C293.2 254.649 293.379 254.402 293.501 254.127C293.663 253.709 293.727 253.26 293.687 252.814C293.687 252.308 293.687 251.78 293.687 251.171C293.687 249.982 293.687 248.608 293.687 247.037V240.474C293.736 239.999 293.631 239.52 293.387 239.109C293.126 238.696 292.727 238.388 292.261 238.241C291.746 238.146 291.222 238.115 290.7 238.148H275.828L189.683 237.828C189.22 237.829 188.773 237.998 188.425 238.304C188.077 238.61 187.852 239.032 187.792 239.492C187.792 240.525 187.792 241.559 187.792 242.592C187.792 244.659 187.792 246.727 187.792 248.794C187.792 249.827 187.792 250.861 187.792 251.894C187.753 252.374 187.774 252.856 187.854 253.331C187.978 253.752 188.244 254.118 188.608 254.364C188.988 254.612 189.438 254.728 189.89 254.695H194.386L217.258 254.819L255.984 255.057L282.091 255.263L289.191 255.346H282.091H255.984L217.258 255.232L194.386 255.139H189.89C189.33 255.177 188.774 255.028 188.309 254.716C187.838 254.39 187.495 253.912 187.337 253.362C187.244 252.837 187.217 252.302 187.254 251.77C187.254 250.737 187.254 249.703 187.254 248.67C187.254 246.602 187.254 244.535 187.254 242.468C187.254 241.435 187.254 240.401 187.254 239.316C187.327 238.726 187.614 238.183 188.059 237.789C188.504 237.395 189.078 237.177 189.673 237.177L275.817 237.652L290.69 237.766C291.243 237.732 291.799 237.77 292.343 237.88C292.88 238.055 293.333 238.423 293.615 238.913C293.882 239.368 293.998 239.897 293.945 240.422C293.945 240.908 293.945 241.394 293.945 241.859C293.945 243.729 293.945 245.445 293.945 247.026C293.945 248.608 293.945 249.941 293.945 251.16C293.945 251.749 293.945 252.297 293.945 252.804C293.985 253.266 293.91 253.731 293.728 254.158C293.594 254.443 293.4 254.696 293.159 254.899C292.918 255.102 292.637 255.251 292.333 255.336C292.091 255.419 291.832 255.444 291.578 255.408Z" fill="#E0E0E0"/>
<path d="M243.515 197.899L194.899 197.679L194.878 202.237L243.495 202.457L243.515 197.899Z" fill="#4CAF4F"/>
<path opacity="0.2" d="M243.515 197.899L194.899 197.679L194.878 202.237L243.495 202.457L243.515 197.899Z" fill="white"/>
<path d="M199.295 246.975C199.264 247.39 199.113 247.788 198.858 248.118C198.604 248.448 198.258 248.697 197.864 248.832C197.47 248.968 197.044 248.985 196.641 248.881C196.237 248.777 195.873 248.556 195.593 248.247C195.313 247.938 195.13 247.554 195.067 247.142C195.004 246.73 195.063 246.308 195.237 245.93C195.411 245.551 195.693 245.232 196.046 245.011C196.4 244.791 196.811 244.679 197.228 244.69C197.804 244.723 198.344 244.98 198.731 245.408C199.117 245.836 199.32 246.398 199.295 246.975Z" fill="#4CAF4F"/>
<path d="M205.878 247.006C205.899 247.297 205.859 247.589 205.761 247.865C205.664 248.14 205.511 248.392 205.312 248.606C205.112 248.82 204.871 248.99 204.603 249.106C204.336 249.223 204.047 249.283 203.755 249.283C203.462 249.283 203.174 249.223 202.906 249.106C202.638 248.99 202.397 248.82 202.198 248.606C201.998 248.392 201.845 248.14 201.748 247.865C201.65 247.589 201.61 247.297 201.631 247.006C201.61 246.714 201.65 246.422 201.748 246.146C201.845 245.871 201.998 245.619 202.198 245.405C202.397 245.192 202.638 245.021 202.906 244.905C203.174 244.788 203.462 244.728 203.755 244.728C204.047 244.728 204.336 244.788 204.603 244.905C204.871 245.021 205.112 245.192 205.312 245.405C205.511 245.619 205.664 245.871 205.761 246.146C205.859 246.422 205.899 246.714 205.878 247.006Z" fill="#4CAF4F"/>
<path d="M212.472 247.037C212.442 247.452 212.29 247.85 212.036 248.18C211.781 248.51 211.435 248.759 211.041 248.894C210.647 249.03 210.222 249.047 209.818 248.943C209.414 248.839 209.05 248.618 208.77 248.309C208.491 248 208.308 247.616 208.245 247.204C208.181 246.792 208.24 246.37 208.415 245.992C208.589 245.613 208.87 245.294 209.224 245.073C209.578 244.853 209.989 244.741 210.405 244.752C210.98 244.787 211.519 245.046 211.905 245.473C212.291 245.9 212.495 246.461 212.472 247.037Z" fill="#4CAF4F"/>
<path d="M219.056 247.068C219.025 247.483 218.874 247.881 218.619 248.211C218.365 248.541 218.019 248.79 217.625 248.925C217.231 249.061 216.805 249.078 216.402 248.974C215.998 248.87 215.634 248.649 215.354 248.34C215.074 248.031 214.891 247.647 214.828 247.235C214.765 246.823 214.824 246.401 214.998 246.023C215.172 245.644 215.454 245.325 215.808 245.104C216.161 244.884 216.572 244.772 216.989 244.783C217.564 244.818 218.102 245.077 218.488 245.504C218.875 245.931 219.079 246.492 219.056 247.068Z" fill="#4CAF4F"/>
<path d="M225.64 247.088C225.611 247.505 225.461 247.903 225.207 248.235C224.954 248.567 224.609 248.817 224.215 248.954C223.821 249.091 223.395 249.109 222.99 249.006C222.586 248.903 222.221 248.684 221.94 248.375C221.659 248.066 221.476 247.682 221.412 247.269C221.348 246.857 221.406 246.435 221.58 246.056C221.754 245.676 222.036 245.356 222.39 245.136C222.744 244.915 223.155 244.803 223.572 244.815C224.145 244.849 224.682 245.106 225.068 245.531C225.454 245.956 225.659 246.515 225.64 247.088Z" fill="#4CAF4F"/>
<path d="M232.233 247.119C232.205 247.533 232.057 247.93 231.806 248.261C231.555 248.592 231.213 248.842 230.821 248.981C230.43 249.12 230.007 249.141 229.604 249.043C229.2 248.944 228.835 248.73 228.552 248.426C228.269 248.122 228.081 247.742 228.011 247.333C227.941 246.924 227.992 246.503 228.158 246.123C228.324 245.742 228.598 245.419 228.946 245.192C229.293 244.965 229.7 244.844 230.115 244.845C230.697 244.867 231.247 245.118 231.644 245.545C232.041 245.971 232.253 246.537 232.233 247.119Z" fill="#4CAF4F"/>
<path d="M238.817 247.15C238.837 247.442 238.797 247.734 238.7 248.009C238.602 248.285 238.449 248.537 238.25 248.751C238.051 248.964 237.81 249.135 237.542 249.251C237.274 249.368 236.985 249.428 236.693 249.428C236.401 249.428 236.112 249.368 235.844 249.251C235.576 249.135 235.335 248.964 235.136 248.751C234.937 248.537 234.784 248.285 234.686 248.009C234.589 247.734 234.549 247.442 234.569 247.15C234.549 246.859 234.589 246.566 234.686 246.291C234.784 246.016 234.937 245.764 235.136 245.55C235.335 245.336 235.576 245.166 235.844 245.05C236.112 244.933 236.401 244.873 236.693 244.873C236.985 244.873 237.274 244.933 237.542 245.05C237.81 245.166 238.051 245.336 238.25 245.55C238.449 245.764 238.602 246.016 238.7 246.291C238.797 246.566 238.837 246.859 238.817 247.15Z" fill="#4CAF4F"/>
<path d="M245.401 247.181C245.372 247.595 245.224 247.992 244.973 248.323C244.722 248.654 244.38 248.904 243.989 249.043C243.597 249.182 243.174 249.203 242.771 249.105C242.367 249.006 242.002 248.792 241.719 248.488C241.436 248.184 241.248 247.804 241.178 247.395C241.108 246.986 241.159 246.565 241.325 246.185C241.491 245.804 241.765 245.481 242.113 245.254C242.46 245.027 242.867 244.906 243.282 244.908C243.864 244.929 244.414 245.18 244.811 245.607C245.208 246.033 245.42 246.599 245.401 247.181Z" fill="#4CAF4F"/>
<path d="M251.984 247.212C251.956 247.629 251.805 248.027 251.552 248.359C251.299 248.691 250.954 248.941 250.559 249.078C250.165 249.215 249.74 249.233 249.335 249.13C248.931 249.027 248.565 248.808 248.285 248.499C248.004 248.19 247.82 247.806 247.756 247.393C247.692 246.981 247.751 246.559 247.925 246.18C248.099 245.8 248.38 245.48 248.734 245.26C249.089 245.039 249.5 244.927 249.917 244.939C250.49 244.973 251.027 245.23 251.413 245.655C251.799 246.08 252.004 246.639 251.984 247.212Z" fill="#4CAF4F"/>
<g opacity="0.2">
<path d="M199.295 246.975C199.264 247.39 199.113 247.788 198.858 248.118C198.604 248.448 198.258 248.697 197.864 248.832C197.47 248.968 197.044 248.985 196.641 248.881C196.237 248.777 195.873 248.556 195.593 248.247C195.313 247.938 195.13 247.554 195.067 247.142C195.004 246.73 195.063 246.308 195.237 245.93C195.411 245.551 195.693 245.232 196.046 245.011C196.4 244.791 196.811 244.679 197.228 244.69C197.804 244.723 198.344 244.98 198.731 245.408C199.117 245.836 199.32 246.398 199.295 246.975Z" fill="white"/>
<path d="M205.878 247.006C205.899 247.297 205.859 247.589 205.761 247.865C205.664 248.14 205.511 248.392 205.312 248.606C205.112 248.82 204.871 248.99 204.603 249.106C204.336 249.223 204.047 249.283 203.755 249.283C203.462 249.283 203.174 249.223 202.906 249.106C202.638 248.99 202.397 248.82 202.198 248.606C201.998 248.392 201.845 248.14 201.748 247.865C201.65 247.589 201.61 247.297 201.631 247.006C201.61 246.714 201.65 246.422 201.748 246.146C201.845 245.871 201.998 245.619 202.198 245.405C202.397 245.192 202.638 245.021 202.906 244.905C203.174 244.788 203.462 244.728 203.755 244.728C204.047 244.728 204.336 244.788 204.603 244.905C204.871 245.021 205.112 245.192 205.312 245.405C205.511 245.619 205.664 245.871 205.761 246.146C205.859 246.422 205.899 246.714 205.878 247.006Z" fill="white"/>
<path d="M212.472 247.037C212.442 247.452 212.29 247.85 212.036 248.18C211.781 248.51 211.435 248.759 211.041 248.894C210.647 249.03 210.222 249.047 209.818 248.943C209.414 248.839 209.05 248.618 208.77 248.309C208.491 248 208.308 247.616 208.245 247.204C208.181 246.792 208.24 246.37 208.415 245.992C208.589 245.613 208.87 245.294 209.224 245.073C209.578 244.853 209.989 244.741 210.405 244.752C210.98 244.787 211.519 245.046 211.905 245.473C212.291 245.9 212.495 246.461 212.472 247.037Z" fill="white"/>
<path d="M219.056 247.068C219.025 247.483 218.874 247.881 218.619 248.211C218.365 248.541 218.019 248.79 217.625 248.925C217.231 249.061 216.805 249.078 216.402 248.974C215.998 248.87 215.634 248.649 215.354 248.34C215.074 248.031 214.891 247.647 214.828 247.235C214.765 246.823 214.824 246.401 214.998 246.023C215.172 245.644 215.454 245.325 215.808 245.104C216.161 244.884 216.572 244.772 216.989 244.783C217.564 244.818 218.102 245.077 218.488 245.504C218.875 245.931 219.079 246.492 219.056 247.068Z" fill="white"/>
<path d="M225.64 247.088C225.611 247.505 225.461 247.903 225.207 248.235C224.954 248.567 224.609 248.817 224.215 248.954C223.821 249.091 223.395 249.109 222.99 249.006C222.586 248.903 222.221 248.684 221.94 248.375C221.659 248.066 221.476 247.682 221.412 247.269C221.348 246.857 221.406 246.435 221.58 246.056C221.754 245.676 222.036 245.356 222.39 245.136C222.744 244.915 223.155 244.803 223.572 244.815C224.145 244.849 224.682 245.106 225.068 245.531C225.454 245.956 225.659 246.515 225.64 247.088Z" fill="white"/>
<path d="M232.233 247.119C232.205 247.533 232.056 247.93 231.806 248.261C231.555 248.592 231.213 248.842 230.821 248.981C230.43 249.12 230.007 249.141 229.604 249.043C229.2 248.944 228.835 248.73 228.552 248.426C228.269 248.122 228.081 247.742 228.011 247.333C227.941 246.924 227.992 246.503 228.158 246.123C228.324 245.742 228.598 245.419 228.945 245.192C229.293 244.965 229.699 244.844 230.115 244.846C230.697 244.867 231.247 245.118 231.644 245.545C232.041 245.971 232.253 246.537 232.233 247.119Z" fill="white"/>
<path d="M238.817 247.15C238.837 247.442 238.797 247.734 238.7 248.009C238.602 248.285 238.449 248.537 238.25 248.751C238.051 248.964 237.81 249.135 237.542 249.251C237.274 249.368 236.985 249.428 236.693 249.428C236.401 249.428 236.112 249.368 235.844 249.251C235.576 249.135 235.335 248.964 235.136 248.751C234.937 248.537 234.784 248.285 234.686 248.009C234.589 247.734 234.549 247.442 234.569 247.15C234.549 246.859 234.589 246.566 234.686 246.291C234.784 246.016 234.937 245.764 235.136 245.55C235.335 245.336 235.576 245.166 235.844 245.05C236.112 244.933 236.401 244.873 236.693 244.873C236.985 244.873 237.274 244.933 237.542 245.05C237.81 245.166 238.051 245.336 238.25 245.55C238.449 245.764 238.602 246.016 238.7 246.291C238.797 246.566 238.837 246.859 238.817 247.15Z" fill="white"/>
<path d="M245.401 247.181C245.372 247.595 245.224 247.992 244.973 248.323C244.722 248.654 244.38 248.904 243.989 249.043C243.597 249.182 243.174 249.203 242.771 249.105C242.367 249.006 242.002 248.792 241.719 248.488C241.436 248.184 241.248 247.804 241.178 247.395C241.108 246.986 241.159 246.565 241.325 246.185C241.491 245.804 241.765 245.481 242.113 245.254C242.46 245.027 242.867 244.906 243.282 244.908C243.864 244.929 244.414 245.18 244.811 245.607C245.208 246.033 245.42 246.599 245.401 247.181Z" fill="white"/>
<path d="M251.984 247.212C251.956 247.629 251.805 248.027 251.552 248.359C251.299 248.691 250.954 248.941 250.559 249.078C250.165 249.215 249.74 249.233 249.335 249.13C248.931 249.027 248.565 248.808 248.285 248.499C248.004 248.19 247.82 247.806 247.756 247.393C247.692 246.981 247.751 246.559 247.925 246.18C248.099 245.8 248.38 245.48 248.734 245.26C249.089 245.039 249.5 244.927 249.917 244.939C250.49 244.973 251.027 245.23 251.413 245.655C251.799 246.08 252.004 246.639 251.984 247.212Z" fill="white"/>
</g>
<path d="M242.631 98.0124C243.349 97.6962 243.958 97.1759 244.382 96.5162C244.807 95.8565 245.028 95.0865 245.018 94.302C245.045 93.7921 244.968 93.2821 244.791 92.803C244.614 92.3239 244.342 91.8858 243.99 91.5154C243.639 91.145 243.216 90.85 242.746 90.6484C242.277 90.4469 241.772 90.3429 241.261 90.3429C240.751 90.3429 240.245 90.4469 239.776 90.6484C239.307 90.85 238.884 91.145 238.532 91.5154C238.181 91.8858 237.908 92.3239 237.732 92.803C237.555 93.2821 237.478 93.7921 237.504 94.302C237.489 95.0943 237.708 95.8735 238.135 96.5413C238.562 97.209 239.177 97.7353 239.902 98.0538C234.114 98.9219 234.373 105.206 234.373 105.206L248.057 105.268C248.057 105.268 248.377 98.8702 242.631 98.0124Z" fill="#4CAF4F"/>
<path opacity="0.1" d="M242.631 98.0124C243.349 97.6962 243.958 97.1759 244.382 96.5162C244.807 95.8565 245.028 95.0865 245.018 94.302C245.045 93.7921 244.968 93.2821 244.791 92.803C244.614 92.3239 244.342 91.8858 243.99 91.5154C243.639 91.145 243.216 90.85 242.746 90.6484C242.277 90.4469 241.772 90.3429 241.261 90.3429C240.751 90.3429 240.245 90.4469 239.776 90.6484C239.307 90.85 238.884 91.145 238.532 91.5154C238.181 91.8858 237.908 92.3239 237.732 92.803C237.555 93.2821 237.478 93.7921 237.504 94.302C237.489 95.0943 237.708 95.8735 238.135 96.5413C238.562 97.209 239.177 97.7353 239.902 98.0538C234.114 98.9219 234.373 105.206 234.373 105.206L248.057 105.268C248.057 105.268 248.377 98.8702 242.631 98.0124Z" fill="black"/>
<path d="M264.867 109.321L216.095 109.099L216.068 114.928L264.84 115.15L264.867 109.321Z" fill="#4CAF4F"/>
<path opacity="0.2" d="M264.867 109.321L216.095 109.099L216.068 114.928L264.84 115.15L264.867 109.321Z" fill="white"/>
<path d="M85.5657 139.529H85.0799L83.6743 139.633C82.9137 139.678 82.1572 139.778 81.4109 139.932C80.9275 140 80.448 140.093 79.9743 140.211L78.3723 140.656C75.6457 141.492 73.0731 142.766 70.7552 144.428C67.6928 146.651 65.1356 149.497 63.2518 152.779C62.1446 154.671 61.2636 156.686 60.6267 158.784C59.9575 161.063 59.5721 163.417 59.4795 165.791C59.4179 167.038 59.4386 168.288 59.5415 169.532C59.5415 170.163 59.7172 170.793 59.7999 171.434C59.8694 172.08 59.9904 172.719 60.1616 173.346C61.091 177.493 62.9767 181.366 65.6683 184.655C68.36 187.945 71.783 190.559 75.6645 192.291C78.4737 193.503 81.4847 194.179 84.5425 194.285C87.7007 194.459 90.862 194.006 93.8442 192.952L94.7537 192.611H94.8777L94.9811 192.673L108.014 199.288L107.631 199.618C106.236 195.298 104.893 191.112 103.59 187.092V186.937L103.704 186.823C106.866 183.639 109.213 179.739 110.546 175.455C111.754 171.537 112.106 167.407 111.58 163.342C111.111 159.729 109.95 156.241 108.159 153.068C106.615 150.343 104.623 147.898 102.267 145.834C100.324 144.2 98.1727 142.831 95.8699 141.762C94.1275 141.01 92.3129 140.439 90.4542 140.056L88.3872 139.715L86.8886 139.602L85.9791 139.54H85.669C85.7721 139.528 85.876 139.528 85.9791 139.54H86.8989L88.3975 139.602L90.4646 139.901C92.3463 140.256 94.1857 140.806 95.9526 141.545C98.2949 142.601 100.485 143.967 102.464 145.606C104.863 147.661 106.897 150.107 108.479 152.841C110.321 156.047 111.518 159.583 112.003 163.249C112.574 167.376 112.246 171.579 111.042 175.568C109.7 179.942 107.317 183.925 104.097 187.175L104.159 186.906C105.461 190.926 106.815 195.112 108.221 199.422L108.417 200.052L107.828 199.753L94.7951 193.149H95.0224L94.0923 193.49C91.0526 194.559 87.8328 195.023 84.6148 194.854C81.4912 194.735 78.4172 194.034 75.5508 192.787C70.0831 190.445 65.5341 186.375 62.6007 181.201C61.2508 178.811 60.265 176.234 59.6758 173.553C59.5145 172.91 59.3937 172.258 59.3141 171.6C59.2314 170.948 59.0971 170.308 59.0661 169.667C58.7863 165.989 59.175 162.292 60.2133 158.753C60.866 156.626 61.7717 154.586 62.9108 152.676C64.8395 149.364 67.4499 146.5 70.5692 144.273C72.9253 142.607 75.541 141.343 78.3103 140.532L79.9329 140.118C80.4105 140.008 80.8935 139.921 81.3799 139.86C82.134 139.72 82.8975 139.637 83.664 139.612L85.0799 139.56C85.2409 139.539 85.4032 139.528 85.5657 139.529Z" fill="#4CAF4F"/>
<path d="M91.4567 163.631H89.5447L85.4106 157.823V154.009C85.4106 154.009 82.4547 153.823 82.8061 158.815C83.1575 163.807 82.8061 162.535 82.8061 162.535C82.8061 162.535 76.5326 162.535 76.0159 163.104C75.4991 163.672 75.4681 169.729 75.3957 173.108C75.3561 173.923 75.5899 174.728 76.0599 175.394C76.5299 176.061 77.2092 176.551 77.9899 176.788C78.2087 176.848 78.4346 176.88 78.6617 176.881C80.2326 176.881 88.2218 175.61 88.2218 175.61H91.5187L91.4567 163.631Z" fill="#4CAF4F"/>
<path d="M96.9241 162.608L95.7459 175.672H92.48V162.877L96.9241 162.608Z" fill="#4CAF4F"/>
<path d="M135.878 428.565V419.729L120.034 419.615L119.899 432.978L120.881 433.051C125.253 433.33 143.123 433.743 146.058 432.834C149.324 431.821 135.878 428.565 135.878 428.565Z" fill="#4CAF4F"/>
<path d="M146.43 432.007C146.43 432.151 140.498 432.275 133.191 432.275C125.883 432.275 119.951 432.151 119.951 432.007C119.951 431.862 125.883 431.738 133.191 431.738C140.498 431.738 146.43 431.862 146.43 432.007Z" fill="#263238"/>
<path d="M136.157 430.374C136.022 430.302 136.157 429.836 136.477 429.34C136.798 428.844 137.232 428.638 137.335 428.741C137.438 428.844 137.221 429.237 136.911 429.661C136.601 430.084 136.291 430.446 136.157 430.374Z" fill="#263238"/>
<path d="M137.17 430.953C137.025 430.953 137.097 430.374 137.407 429.826C137.717 429.278 138.131 428.948 138.244 429.03C138.358 429.113 138.172 429.578 137.883 430.064C137.593 430.549 137.304 431.004 137.17 430.953Z" fill="#263238"/>
<path d="M124.726 431.965C124.664 431.965 124.426 431.779 124.085 431.387C123.669 430.882 123.205 430.418 122.7 430.002C122.204 429.605 121.612 429.345 120.985 429.247C120.499 429.185 120.189 429.247 120.158 429.185C120.127 429.123 120.426 428.906 120.995 428.865C121.745 428.849 122.477 429.098 123.062 429.568C123.61 430.014 124.072 430.557 124.426 431.17C124.664 431.624 124.788 431.924 124.726 431.965Z" fill="#263238"/>
<path d="M136.208 428.71C136.281 428.834 136.012 429.144 135.557 429.309C135.103 429.475 134.699 429.413 134.679 429.309C134.658 429.206 134.979 428.989 135.371 428.844C135.764 428.7 136.126 428.586 136.208 428.71Z" fill="#263238"/>
<path d="M135.96 427.852C135.96 428.007 135.547 428.131 135.009 428.141C134.472 428.152 134.048 428.028 134.059 427.883C134.069 427.738 134.493 427.604 135.009 427.594C135.526 427.583 135.94 427.707 135.96 427.852Z" fill="#263238"/>
<path d="M174.893 428.565V419.729L159.049 419.615L158.915 432.844L159.897 432.916C164.269 433.195 182.149 433.743 185.074 432.834C188.339 431.821 174.893 428.565 174.893 428.565Z" fill="#4CAF4F"/>
<path d="M185.446 432.027C185.446 432.172 179.523 432.296 172.206 432.296C164.889 432.296 158.977 432.172 158.977 432.027C158.977 431.883 164.899 431.759 172.206 431.759C179.513 431.759 185.446 431.883 185.446 432.027Z" fill="#263238"/>
<path d="M175.172 430.374C175.048 430.302 175.172 429.836 175.493 429.34C175.813 428.844 176.247 428.638 176.351 428.741C176.454 428.844 176.237 429.237 175.927 429.661C175.617 430.084 175.307 430.446 175.172 430.374Z" fill="#263238"/>
<path d="M176.185 430.953C176.051 430.953 176.113 430.374 176.433 429.826C176.754 429.278 177.157 428.948 177.27 429.03C177.384 429.113 177.188 429.578 176.898 430.064C176.609 430.549 176.33 431.004 176.185 430.953Z" fill="#263238"/>
<path d="M163.742 431.965C163.68 431.965 163.452 431.779 163.101 431.387C162.684 430.882 162.221 430.418 161.716 430.002C161.219 429.605 160.628 429.345 160 429.247C159.525 429.185 159.204 429.247 159.173 429.185C159.142 429.123 159.442 428.906 160.011 428.865C160.761 428.849 161.493 429.098 162.078 429.568C162.629 430.012 163.091 430.555 163.442 431.17C163.68 431.624 163.804 431.924 163.742 431.965Z" fill="#263238"/>
<path d="M175.224 428.71C175.296 428.834 175.028 429.144 174.573 429.309C174.118 429.475 173.715 429.413 173.694 429.309C173.674 429.206 173.994 428.989 174.387 428.844C174.78 428.7 175.141 428.586 175.224 428.71Z" fill="#263238"/>
<path d="M174.997 427.852C174.997 428.007 174.583 428.131 174.046 428.141C173.508 428.152 173.095 428.028 173.105 427.883C173.116 427.738 173.529 427.604 174.046 427.594C174.563 427.583 174.997 427.707 174.997 427.852Z" fill="#263238"/>
<path d="M233.267 166.153C232.853 165.729 231.83 165.936 231.83 165.936C231.933 165.341 231.933 164.732 231.83 164.137C231.644 163.559 230.342 163.672 230.342 163.672C230.282 163.185 230.282 162.692 230.342 162.205C230.352 162.097 230.329 161.988 230.276 161.894C230.222 161.799 230.14 161.724 230.042 161.678C229.426 161.426 228.764 161.307 228.099 161.326C227.303 160.758 230.528 156.241 231.727 154.794C232.926 153.347 232.709 152.221 231.644 152.221C230.91 152.221 227.148 156.562 225.991 158.019C224.833 159.476 221.764 163.528 221.66 160.293C221.557 157.058 220.255 154.619 219.438 154.205C218.622 153.792 217.754 154.763 218.198 155.663C218.589 156.684 218.832 157.756 218.922 158.846C219.034 159.714 218.995 160.595 218.808 161.45C218.465 163.041 217.999 164.603 217.413 166.122H217.33C217.33 166.122 194.778 187.754 193.145 189.293C191.688 190.678 162.377 187.65 156.497 187.03C154.498 186.738 152.48 186.599 150.461 186.617C147.908 186.73 147.453 187.092 144.911 187.123C138.49 187.194 132.084 187.758 125.749 188.808C122.881 189.295 120.201 190.561 118.003 192.468C115.805 194.374 114.173 196.848 113.285 199.618C107.363 218.119 93.9475 261.909 91.5807 286.507C89.7923 289.75 88.1777 293.086 86.7438 296.501C85.0799 301.028 85.4829 301.183 86.041 301.286C87.55 301.565 89.2656 293.442 89.9064 295.406C90.5472 297.369 86.6508 305.09 88.2321 305.317C90.2992 305.607 91.9425 297.049 92.1389 296.367C92.3352 295.685 93.3584 295.902 93.1724 296.542C92.8727 297.452 89.9684 307.095 91.9942 307.405C93.1104 307.57 93.2344 305.534 93.2344 305.534C93.2344 305.534 95.3014 296.305 96.242 296.491C97.1825 296.677 96.1799 302.124 95.7045 303.943C95.2291 305.762 95.8905 306.681 96.8621 306.237C97.5235 305.927 99.1048 300.398 99.5389 298.599C99.973 296.801 101.058 291.819 102.515 294.703C103.973 297.586 106.184 299.261 107.094 299.302C107.299 299.278 107.492 299.194 107.649 299.06C107.805 298.925 107.918 298.747 107.972 298.548C108.027 298.349 108.021 298.138 107.954 297.943C107.888 297.748 107.765 297.577 107.6 297.452C106.818 296.688 106.147 295.818 105.606 294.868C105.124 294.128 104.774 293.31 104.572 292.45C104.156 290.735 103.913 288.983 103.849 287.22L103.683 286.187C105.998 274.725 112.665 241.083 122.287 219.596L126.235 227.72L127.951 233.735L117.429 259.708L162.305 259.119L155.608 233.342L163.742 206.471C172.537 206.667 195.119 206.998 198.881 205.292C203.615 203.225 228.099 172.302 228.099 172.302C229.695 171.062 231.224 169.737 232.678 168.334C232.678 168.334 234.166 167.083 233.267 166.153Z" fill="#FFBE9D"/>
<path d="M115.455 240.515C116.757 236.071 123.444 214.098 123.444 214.098C123.444 214.098 126.731 232.009 125.863 234.169C125.064 236.018 124.121 237.802 123.041 239.502C115.455 251.047 116.447 256.824 116.447 256.824L162.284 255.429C162.388 249.021 158.595 234.118 157.809 231.74C157.024 229.363 159.638 221.581 159.638 221.581C159.638 221.581 164.806 216.32 164.62 213.612C164.522 211.18 164.221 208.76 163.721 206.378L191.626 207.411L190.748 188.498L150.667 184.488C149.272 188.425 136.653 186.493 136.653 186.493C123.031 186.947 122.183 189.448 116.52 193.851C110.856 198.254 101.482 236.04 101.482 236.04L115.455 240.515Z" fill="#4CAF4F"/>
<path d="M142.554 236.04C141.76 236.182 140.951 236.223 140.146 236.164C138.648 236.164 136.591 236.061 134.327 235.833C132.064 235.606 130.018 235.285 128.56 234.996C127.757 234.893 126.969 234.691 126.214 234.397C127.022 234.397 127.829 234.473 128.622 234.624C130.09 234.81 132.126 235.068 134.379 235.296C136.632 235.523 138.679 235.678 140.156 235.781C140.962 235.792 141.765 235.878 142.554 236.04Z" fill="#263238"/>
<path d="M145.696 232.143C144.902 232.533 144.061 232.821 143.195 233.001C139.072 234.085 134.817 234.589 130.555 234.5C129.673 234.529 128.791 234.445 127.93 234.252C128.8 234.142 129.678 234.097 130.555 234.118C132.178 234.066 134.41 233.952 136.87 233.663C139.33 233.373 141.521 232.96 143.071 232.629C143.932 232.399 144.81 232.237 145.696 232.143Z" fill="#263238"/>
<path d="M161.116 214.76C161.096 215.548 160.988 216.331 160.796 217.095C160.527 218.532 160.114 220.496 159.587 222.645C159.06 224.795 158.553 226.779 158.099 228.123C157.916 228.892 157.645 229.638 157.292 230.345C157.35 229.56 157.496 228.783 157.726 228.03C158.119 226.418 158.564 224.557 159.06 222.521C159.556 220.485 160.031 218.625 160.424 217.013C160.564 216.237 160.796 215.48 161.116 214.76Z" fill="#263238"/>
<path d="M115.941 237.88C113.55 237.51 111.19 236.961 108.882 236.236C106.523 235.685 104.209 234.959 101.957 234.066C104.347 234.441 106.706 234.99 109.016 235.709C111.375 236.259 113.69 236.984 115.941 237.88Z" fill="#263238"/>
<path d="M164.217 206.15C163.827 206.217 163.429 206.217 163.039 206.15C161.959 206.04 160.899 205.786 159.887 205.396C158.196 204.76 156.657 203.779 155.368 202.513C154.079 201.247 153.07 199.726 152.404 198.047C151.668 196.201 151.354 194.213 151.484 192.229C151.53 190.592 152.019 188.999 152.9 187.619C153.519 186.689 154.444 186.006 155.515 185.686C155.801 185.608 156.096 185.569 156.393 185.573C156.6 185.573 156.703 185.573 156.703 185.573C156.703 185.573 156.269 185.573 155.577 185.852C154.595 186.215 153.762 186.895 153.21 187.785C151.804 189.996 151.412 194.037 152.91 197.81C153.608 199.588 154.7 201.186 156.104 202.481C157.254 203.541 158.58 204.395 160.021 205.003C161.373 205.538 162.781 205.922 164.217 206.15Z" fill="#263238"/>
<path d="M188.309 207.039C188.05 203.87 187.967 200.689 188.06 197.51C187.98 194.334 188.076 191.156 188.35 187.991C188.609 191.157 188.691 194.335 188.598 197.51C188.685 200.689 188.588 203.871 188.309 207.039Z" fill="#263238"/>
<path d="M150.399 185.645C150.512 183.34 150.75 180.736 150.75 180.736C150.75 180.736 156.455 180.105 156.796 174.214C157.137 168.323 156.796 154.732 156.796 154.732L146.461 149.441L134.989 158.463L136.756 187.919L147.277 188.591C148.082 188.613 148.862 188.315 149.447 187.763C150.032 187.211 150.374 186.449 150.399 185.645Z" fill="#FFBE9D"/>
<path d="M151.422 169.553C151.422 169.553 151.422 169.667 151.329 169.801C151.252 169.899 151.153 169.976 151.039 170.026C150.926 170.077 150.802 170.099 150.678 170.091C150.016 170.091 149.376 169.326 149.148 168.437C149.04 168.006 149.04 167.555 149.148 167.124C149.169 166.936 149.237 166.756 149.346 166.601C149.454 166.446 149.599 166.32 149.768 166.235C149.907 166.178 150.063 166.178 150.202 166.235C150.305 166.287 150.389 166.37 150.44 166.473C150.512 166.649 150.44 166.763 150.44 166.752C150.44 166.742 150.44 166.649 150.337 166.546C150.283 166.472 150.203 166.42 150.114 166.401C150.024 166.382 149.93 166.397 149.851 166.442C149.724 166.519 149.619 166.626 149.545 166.755C149.471 166.883 149.43 167.028 149.427 167.176C149.34 167.56 149.34 167.959 149.427 168.344C149.634 169.15 150.192 169.801 150.688 169.863C150.785 169.876 150.884 169.869 150.978 169.843C151.072 169.816 151.16 169.77 151.236 169.708C151.36 169.625 151.401 169.543 151.422 169.553Z" fill="#EB996E"/>
<path d="M160.341 151.549C159.545 148.841 156.662 147.498 154.037 146.754C150.037 145.617 145.717 145.121 141.81 146.557C137.903 147.994 133.211 150.516 133.211 154.825C130.906 154.639 129.584 156.655 128.674 159.156C128.093 160.68 127.744 162.282 127.64 163.91C127.351 169.553 125.77 177.346 122.111 181.48C120.044 183.785 117.181 185.376 116.003 188.25C114.969 190.74 115.507 193.696 114.546 196.218C113.688 198.44 111.797 200.021 110.412 201.954C109.001 204.147 108.17 206.662 107.999 209.264C107.827 211.865 108.319 214.468 109.43 216.827C110.548 219.125 112.123 221.172 114.058 222.842C115.993 224.512 118.248 225.771 120.685 226.542C125.513 228.011 130.661 228.061 135.516 226.686C139.16 225.815 142.559 224.13 145.458 221.757C148.425 219.334 150.463 215.96 151.226 212.207C151.959 207.99 150.781 203.701 149.903 199.505C147.153 186.245 147.939 185.552 151.412 173.243C151.494 173.026 151.536 172.798 151.598 172.581C151.66 172.364 151.691 172.261 151.732 172.096C151.831 171.609 151.883 171.114 151.887 170.618C151.38 170.806 150.829 170.846 150.3 170.733C149.771 170.619 149.285 170.357 148.9 169.977C148.514 169.572 148.245 169.069 148.121 168.524C147.997 167.978 148.024 167.408 148.197 166.876C148.441 166.294 148.805 165.77 149.264 165.337C149.723 164.905 150.268 164.573 150.864 164.365C152.011 163.889 153.241 163.641 154.367 163.114C156.755 161.977 158.409 159.621 159.535 157.151C160.461 155.439 160.747 153.453 160.341 151.549Z" fill="#263238"/>
<path d="M151.835 169.832C152.054 170.155 152.234 170.502 152.373 170.866C152.683 171.517 153.096 172.437 153.551 173.501L153.634 173.698H153.417L152.383 173.791C151.67 173.791 151.071 173.925 150.368 173.915C150.307 173.901 150.25 173.872 150.203 173.83C150.156 173.789 150.12 173.736 150.099 173.677C150.068 173.583 150.068 173.482 150.099 173.387C150.123 173.248 150.154 173.11 150.192 172.974L150.378 172.24C150.472 171.751 150.617 171.273 150.812 170.814C150.793 171.313 150.72 171.808 150.595 172.292L150.45 173.026C150.399 173.274 150.306 173.656 150.45 173.625C150.967 173.625 151.701 173.512 152.383 173.47L153.417 173.377L153.282 173.605C152.838 172.571 152.466 171.599 152.249 170.928C152.058 170.585 151.919 170.216 151.835 169.832Z" fill="#4CAF4F"/>
<path d="M116.447 256.824L162.284 255.429L182.231 333.295L178.562 422.612H154.326L157.292 335.196L139.567 280.988L142.296 426.074L117.801 426.436L115.228 290.062C115.114 286.269 113.874 277.722 114.339 273.96L116.447 256.824Z" fill="#263238"/>
<path d="M145.665 282.094C144.915 282.141 144.162 282.096 143.422 281.959C142.038 281.794 140.146 281.505 138.069 281.091C135.991 280.678 134.131 280.202 132.787 279.82C132.069 279.662 131.374 279.412 130.72 279.076C130.72 278.921 134.09 279.727 138.224 280.564C142.358 281.401 145.686 281.939 145.665 282.094Z" fill="#455A64"/>
<path d="M178.314 417.713C178.314 417.858 172.826 417.982 166.057 417.982C159.287 417.982 153.789 417.858 153.789 417.713C153.789 417.568 159.277 417.444 166.057 417.444C172.837 417.444 178.314 417.558 178.314 417.713Z" fill="#455A64"/>
<path d="M142.079 422.302C142.079 422.457 136.746 422.571 130.173 422.571C123.599 422.571 118.277 422.457 118.277 422.302C118.277 422.147 123.61 422.033 130.173 422.033C136.736 422.033 142.079 422.157 142.079 422.302Z" fill="#455A64"/>
<path d="M138.916 421.93C138.772 421.93 138.131 390.232 137.48 351.133C136.829 312.035 136.446 280.316 136.58 280.316C136.715 280.316 137.376 312.004 138.017 351.123C138.658 390.242 139.071 421.93 138.916 421.93Z" fill="#455A64"/>
<path d="M175.059 417.713C175.047 417.572 175.047 417.43 175.059 417.289V416.049C175.059 414.933 175.141 413.331 175.203 411.295C175.348 407.161 175.555 401.156 175.813 393.797C176.371 378.997 177.157 358.595 178.015 336.075C178.015 335.858 178.015 335.651 178.015 335.465V335.537C172.589 313.833 167.679 294.134 164.114 279.882L159.98 263.025C159.504 261.051 159.142 259.511 158.884 258.436C158.76 257.93 158.677 257.537 158.605 257.238C158.565 257.103 158.54 256.964 158.533 256.824C158.586 256.954 158.628 257.089 158.657 257.227C158.739 257.517 158.843 257.909 158.987 258.405C159.266 259.439 159.669 261.01 160.186 262.974C161.22 266.963 162.677 272.709 164.496 279.789C168.093 294.031 173.054 313.678 178.552 335.413V335.486C178.552 335.672 178.552 335.889 178.552 336.096C177.632 358.616 176.795 379.008 176.185 393.808C175.865 401.177 175.596 407.14 175.41 411.295C175.307 413.362 175.224 414.933 175.172 416.049C175.172 416.576 175.11 416.99 175.1 417.289C175.102 417.432 175.088 417.574 175.059 417.713Z" fill="#455A64"/>
<path d="M167.152 333.646C165.411 334.218 163.618 334.617 161.799 334.835C159.566 335.217 157.664 335.486 156.807 335.527V335.32C157.086 335.403 157.23 335.455 157.23 335.496C157.23 335.537 157.055 335.496 156.765 335.496H156.145L156.765 335.31C157.571 335.072 159.473 334.68 161.706 334.277C163.496 333.888 165.32 333.677 167.152 333.646Z" fill="#455A64"/>
<path d="M166.728 336.612C165.116 336.686 163.501 336.614 161.902 336.395C160.288 336.362 158.679 336.186 157.096 335.868C160.326 335.605 163.577 335.856 166.728 336.612Z" fill="#455A64"/>
<path opacity="0.2" d="M116.251 258.467C116.794 259.164 117.478 259.739 118.258 260.154C119.038 260.569 119.896 260.815 120.778 260.876C122.624 261.094 124.491 261.059 126.328 260.772C138.162 259.46 150.698 258.25 162.284 255.429C147.288 256.266 131.444 255.987 116.447 256.824L116.292 258.106" fill="black"/>
<g opacity="0.2">
<path d="M131.702 279.603L140.157 312.407L139.567 280.988L131.702 279.603Z" fill="black"/>
</g>
</svg>
